<svg width="180" height="220" viewBox="0 0 180 220" fill="none" xmlns="http://www.w3.org/2000/svg">
<circle cx="10" cy="10" r="10" fill="#24F502"/>
<circle cx="90" cy="170" r="10" fill="#24F502"/>
<circle cx="130" cy="170" r="10" fill="#24F502"/>
<circle cx="130" cy="130" r="10" fill="#24F502"/>
<circle cx="90" cy="130" r="10" fill="#24F502"/>
<circle cx="90" cy="90" r="10" fill="#24F502"/>
<circle cx="130" cy="90" r="10" fill="#24F502"/>
<circle cx="130" cy="210" r="10" fill="#24F502"/>
<circle cx="170" cy="90" r="10" fill="#24F502"/>
<circle cx="170" cy="130" r="10" fill="#24F502"/>
<circle cx="170" cy="170" r="10" fill="#24F502"/>
<circle cx="53" cy="210" r="10" fill="#24F502"/>
<circle cx="53" cy="170" r="10" fill="#24F502"/>
<circle cx="170" cy="210" r="10" fill="#24F502"/>
<circle cx="90" cy="210" r="10" fill="#24F502"/>
<circle cx="50" cy="130" r="10" fill="#24F502"/>
<circle cx="10" cy="210" r="10" fill="#24F502"/>
<circle cx="10" cy="170" r="10" fill="#24F502"/>
<circle cx="10" cy="130" r="10" fill="#24F502"/>
<circle cx="50" cy="90" r="10" fill="#24F502"/>
<circle cx="10" cy="90" r="10" fill="#24F502"/>
<circle cx="90" cy="10" r="10" fill="#24F502"/>
<circle cx="50" cy="10" r="10" fill="#24F502"/>
<circle cx="10" cy="50" r="10" fill="#24F502"/>
<circle cx="50" cy="50" r="10" fill="#24F502"/>
<circle cx="90" cy="50" r="10" fill="#24F502"/>
<circle cx="170" cy="50" r="10" fill="#24F502"/>
<circle cx="130" cy="50" r="10" fill="#24F502"/>
<circle cx="170" cy="10" r="10" fill="#24F502"/>
<circle cx="130" cy="10" r="10" fill="#24F502"/>
</svg>
